<?xml version="1.0" standalone="no"?><!DOCTYPE svg PUBLIC "-//W3C//DTD SVG 1.1//EN" "http://www.w3.org/Graphics/SVG/1.1/DTD/svg11.dtd"><svg t="1540803669574" class="icon" style="" viewBox="0 0 1024 1024" version="1.1" xmlns="http://www.w3.org/2000/svg" p-id="3236" xmlns:xlink="http://www.w3.org/1999/xlink" width="28" height="28"><defs><style type="text/css"></style></defs><path d="M240.154 934.54c11.134 7.636 24.193 11.516 37.266 11.516 10.779 0 21.544-2.609 31.297-7.84l203.258-109.464 203.3 109.463a66.374 66.374 0 0 0 31.296 7.841c13.06 0 26.12-3.88 37.294-11.516 20.19-13.948 30.518-37.854 26.474-61.706l-39.616-236.632 170.91-170.663c16.925-16.831 22.718-41.53 15.012-63.96-7.732-22.39-27.622-38.742-51.568-42.32l-233.149-34.686-101.361-210.389c-10.628-22.103-33.47-36.242-58.592-36.242-25.04 0-47.894 14.14-58.563 36.242l-101.336 210.39-233.16 34.684c-23.962 3.579-43.852 19.931-51.57 42.321-7.705 22.43-1.871 47.129 15.04 63.96l170.841 170.663-39.629 236.632c-3.99 23.852 6.323 47.758 26.556 61.706zM118.478 421.96l232.41-34.52 40.887-6.093 17.95-37.212L511.99 132.093l102.25 212.042 17.964 37.212 40.888 6.093 232.41 34.52-169.49 169.066-28.469 28.4 6.626 39.63 39.603 236.194-204.816-110.158-37.008-19.917-37.007 19.917-204.815 110.2 39.602-236.234 6.627-39.63-28.47-28.4L118.477 421.96z" p-id="3237" fill="#34b2fd"></path></svg>